<mxfile host="app.diagrams.net" modified="2021-03-30T06:38:04.410Z" agent="5.0 (Windows NT 10.0; Win64; x64) AppleWebKit/537.36 (KHTML, like Gecko) Chrome/89.0.4389.90 Safari/537.36" etag="s0aSDfxHmXet0-rMnFU3" version="14.5.3" type="github">
  <diagram id="prtHgNgQTEPvFCAcTncT" name="Page-1">
    <mxGraphModel dx="677" dy="363" grid="1" gridSize="10" guides="1" tooltips="1" connect="1" arrows="1" fold="1" page="1" pageScale="1" pageWidth="827" pageHeight="1169" math="0" shadow="1">
      <root>
        <mxCell id="0" />
        <mxCell id="1" parent="0" />
        <mxCell id="oGk4RINsHPPc69_opW_2-7" style="edgeStyle=orthogonalEdgeStyle;rounded=0;orthogonalLoop=1;jettySize=auto;html=1;entryX=0;entryY=0.5;entryDx=0;entryDy=0;" edge="1" parent="1" source="oGk4RINsHPPc69_opW_2-2" target="oGk4RINsHPPc69_opW_2-3">
          <mxGeometry relative="1" as="geometry" />
        </mxCell>
        <mxCell id="oGk4RINsHPPc69_opW_2-8" style="edgeStyle=orthogonalEdgeStyle;rounded=0;orthogonalLoop=1;jettySize=auto;html=1;exitX=0.5;exitY=1;exitDx=0;exitDy=0;entryX=0;entryY=0.5;entryDx=0;entryDy=0;" edge="1" parent="1" source="oGk4RINsHPPc69_opW_2-2" target="oGk4RINsHPPc69_opW_2-4">
          <mxGeometry relative="1" as="geometry" />
        </mxCell>
        <mxCell id="oGk4RINsHPPc69_opW_2-9" style="edgeStyle=orthogonalEdgeStyle;rounded=0;orthogonalLoop=1;jettySize=auto;html=1;exitX=0.5;exitY=1;exitDx=0;exitDy=0;entryX=0;entryY=0.5;entryDx=0;entryDy=0;" edge="1" parent="1" source="oGk4RINsHPPc69_opW_2-2" target="oGk4RINsHPPc69_opW_2-6">
          <mxGeometry relative="1" as="geometry" />
        </mxCell>
        <mxCell id="oGk4RINsHPPc69_opW_2-10" style="edgeStyle=orthogonalEdgeStyle;rounded=0;orthogonalLoop=1;jettySize=auto;html=1;exitX=0.5;exitY=1;exitDx=0;exitDy=0;entryX=0;entryY=0.5;entryDx=0;entryDy=0;" edge="1" parent="1" source="oGk4RINsHPPc69_opW_2-2" target="oGk4RINsHPPc69_opW_2-5">
          <mxGeometry relative="1" as="geometry" />
        </mxCell>
        <mxCell id="oGk4RINsHPPc69_opW_2-2" value="管理员权限" style="rounded=0;whiteSpace=wrap;html=1;" vertex="1" parent="1">
          <mxGeometry x="320" y="230" width="140" height="30" as="geometry" />
        </mxCell>
        <mxCell id="oGk4RINsHPPc69_opW_2-3" value="历&lt;br&gt;史&lt;br&gt;数&lt;br&gt;据" style="rounded=0;whiteSpace=wrap;html=1;direction=south;" vertex="1" parent="1">
          <mxGeometry x="280" y="310" width="40" height="100" as="geometry" />
        </mxCell>
        <mxCell id="oGk4RINsHPPc69_opW_2-4" value="报&lt;br&gt;表&lt;br&gt;管&lt;br&gt;理" style="rounded=0;whiteSpace=wrap;html=1;direction=south;" vertex="1" parent="1">
          <mxGeometry x="340" y="310" width="40" height="100" as="geometry" />
        </mxCell>
        <mxCell id="oGk4RINsHPPc69_opW_2-5" value="用&lt;br&gt;户&lt;br&gt;管&lt;br&gt;理" style="rounded=0;whiteSpace=wrap;html=1;direction=south;" vertex="1" parent="1">
          <mxGeometry x="460" y="310" width="40" height="100" as="geometry" />
        </mxCell>
        <mxCell id="oGk4RINsHPPc69_opW_2-6" value="短&lt;br&gt;信&lt;br&gt;预&lt;br&gt;警" style="rounded=0;whiteSpace=wrap;html=1;direction=south;" vertex="1" parent="1">
          <mxGeometry x="400" y="310" width="40" height="100" as="geometry" />
        </mxCell>
      </root>
    </mxGraphModel>
  </diagram>
</mxfile>
